<?xml version="1.0" encoding="utf-8"?>
<!-- Generator: Adobe Illustrator 16.0.0, SVG Export Plug-In . SVG Version: 6.00 Build 0)  -->
<!DOCTYPE svg PUBLIC "-//W3C//DTD SVG 1.1//EN" "http://www.w3.org/Graphics/SVG/1.1/DTD/svg11.dtd">
<svg version="1.1" id="Layer_1" xmlns="http://www.w3.org/2000/svg" xmlns:xlink="http://www.w3.org/1999/xlink" x="0px" y="0px"
	 width="638px" height="300px" viewBox="0 0 638 300" enable-background="new 0 0 638 300" xml:space="preserve">
<g>
	<path fill="#CFEFEC" d="M318,239.001v-171.8h33.2v171.8H318z"/>
	<path fill="#CFEFEC" d="M371.998,229.001c-6.934-7.731-10.399-20.2-10.399-37.4v-16.8h33.8v21.4c0,8.534,2.731,12.8,8.2,12.8
		c3.065,0,5.2-0.899,6.399-2.7c1.2-1.8,1.801-4.831,1.801-9.1c0-5.6-0.669-10.231-2-13.9c-1.335-3.666-3.035-6.731-5.101-9.2
		c-2.068-2.466-5.769-6.3-11.1-11.5l-14.8-14.8c-11.469-11.2-17.2-23.6-17.2-37.2c0-14.666,3.365-25.832,10.1-33.5
		c6.731-7.666,16.565-11.5,29.5-11.5c15.466,0,26.601,4.1,33.4,12.3c6.8,8.2,10.2,21.035,10.2,38.5h-35l-0.2-11.8
		c0-2.266-0.635-4.066-1.9-5.4c-1.269-1.332-3.034-2-5.3-2c-2.669,0-4.669,0.734-6,2.2c-1.334,1.469-2,3.469-2,6
		c0,5.6,3.2,11.4,9.6,17.4l20,19.2c4.666,4.534,8.531,8.834,11.601,12.9c3.065,4.069,5.531,8.869,7.399,14.4
		c1.866,5.535,2.801,12.1,2.801,19.7c0,16.935-3.101,29.769-9.301,38.5c-6.199,8.734-16.434,13.101-30.699,13.101
		C390.198,240.602,378.93,236.735,371.998,229.001z"/>
	<path fill="#CFEFEC" d="M457.197,67.201h52.801c8.399,0,14.899,1.9,19.5,5.7c4.6,3.8,7.699,9.134,9.3,16
		c1.6,6.869,2.399,15.634,2.399,26.3c0,9.734-1.269,17.334-3.8,22.8c-2.534,5.469-6.935,9.269-13.2,11.4
		c5.2,1.069,8.966,3.669,11.301,7.8c2.331,4.134,3.5,9.734,3.5,16.8l-0.4,65h-33.6v-67.2c0-4.8-0.935-7.865-2.801-9.2
		c-1.868-1.332-5.269-2-10.199-2v78.4h-34.801V67.201z M500.397,130.801c4.8,0,7.2-5.2,7.2-15.6c0-4.531-0.2-7.932-0.6-10.2
		c-0.4-2.266-1.135-3.831-2.2-4.7c-1.069-0.865-2.601-1.3-4.601-1.3h-8v31.8H500.397z"/>
	<path fill="#CFEFEC" d="M547.996,239.001l16.6-171.8h58.2l16.4,171.8h-32.601l-2.399-27.8h-20.8l-2,27.8H547.996z M585.996,183.801
		h15.6l-7.6-87.4h-1.6L585.996,183.801z"/>
</g>
<polygon fill="#CFEFEC" points="0,0 100,0 200,100.153 299.768,0 400,0 260,150.5 400,300 300,300 200,199.25 100,299.125 
	0,299.563 140,150.935 "/>
<polygon fill="#CFEFEC" points="260,300 200,239.501 140,300 "/>
</svg>
